<?xml version="1.0" standalone="no"?>
<!DOCTYPE svg PUBLIC "-//W3C//DTD SVG 20010904//EN"
 "http://www.w3.org/TR/2001/REC-SVG-20010904/DTD/svg10.dtd">
<svg version="1.0" xmlns="http://www.w3.org/2000/svg"
 width="667.000000pt" height="167.000000pt" viewBox="0 0 667.000000 167.000000"
 preserveAspectRatio="xMidYMid meet">

<g transform="translate(0.000000,167.000000) scale(0.100000,-0.100000)"
fill="#000000" stroke="none">
<path d="M3373 1539 c-118 -20 -275 -110 -338 -193 -26 -34 -26 -36 -9 -59 31
-40 132 -115 200 -147 172 -82 352 -73 524 27 53 31 160 130 160 148 0 18
-112 119 -167 151 -109 65 -256 94 -370 73z m156 -105 c87 -51 94 -171 15
-233 -59 -47 -143 -35 -194 27 -52 63 -36 160 33 202 39 24 109 26 146 4z"/>
<path d="M256 1212 c-3 -5 -5 -203 -3 -438 l2 -429 240 0 c211 0 246 2 289 19
62 24 114 70 137 121 22 48 25 142 5 188 -19 47 -73 94 -130 116 -46 17 -48
19 -25 26 83 25 135 111 126 208 -7 76 -41 121 -122 162 l-60 30 -226 3 c-140
3 -229 0 -233 -6z m391 -143 c52 -19 73 -48 73 -99 0 -84 -58 -120 -195 -120
l-85 0 0 115 0 115 89 0 c49 0 102 -5 118 -11z m41 -359 c68 -31 91 -104 52
-168 -30 -49 -72 -62 -195 -62 l-105 0 0 125 0 125 103 0 c79 0 111 -5 145
-20z"/>
<path d="M2390 780 l0 -440 90 0 90 0 0 109 c0 93 3 112 19 132 13 16 23 21
30 14 6 -6 48 -64 93 -130 l84 -120 213 0 213 0 64 185 c107 310 154 448 154
454 0 3 -40 6 -90 6 l-89 0 -10 -37 c-6 -21 -27 -99 -47 -173 -63 -234 -75
-273 -83 -264 -5 5 -15 36 -24 69 -8 33 -37 138 -63 233 l-47 172 -98 0 -98 0
-108 -127 -108 -127 -5 239 -5 240 -87 3 -88 3 0 -441z m539 -167 c41 -120 76
-225 79 -233 3 -10 -2 -8 -16 5 -30 30 -242 316 -242 327 0 10 91 116 100 117
3 1 39 -97 79 -216z"/>
<path d="M1210 991 c-94 -30 -170 -112 -170 -182 0 -17 8 -19 78 -19 75 0 77
1 94 30 28 49 108 66 168 35 30 -16 37 -29 42 -85 l3 -35 -115 -8 c-233 -18
-321 -91 -295 -248 9 -53 75 -123 131 -138 90 -25 177 -6 237 51 22 21 42 38
44 38 1 0 3 -20 3 -45 l0 -45 85 0 85 0 0 233 c0 131 -5 248 -11 270 -13 48
-60 102 -113 130 -32 16 -62 21 -141 24 -55 1 -111 -1 -125 -6z m210 -406 c0
-76 -55 -125 -138 -125 -57 0 -92 30 -92 80 0 59 35 77 158 79 l72 1 0 -35z"/>
<path d="M1883 984 c-61 -22 -136 -94 -164 -156 -20 -45 -23 -69 -23 -163 0
-97 3 -117 25 -165 60 -128 196 -196 343 -169 129 23 210 97 231 212 l7 37
-79 0 -79 0 -18 -40 c-46 -105 -181 -104 -233 1 -27 53 -31 177 -9 230 50 120
201 124 245 7 10 -27 12 -28 91 -28 92 0 91 -1 60 83 -21 57 -73 113 -130 143
-48 25 -208 30 -267 8z"/>
<path d="M4391 981 c-101 -42 -163 -126 -179 -246 -25 -184 35 -320 169 -380
144 -64 336 -16 405 100 13 23 24 51 24 63 0 21 -5 22 -71 22 -67 0 -72 -2
-102 -34 -90 -95 -257 -42 -257 82 l0 32 221 0 222 0 -5 88 c-7 125 -52 204
-146 259 -40 24 -59 28 -142 30 -75 2 -105 -1 -139 -16z m214 -143 c24 -22 38
-45 42 -70 l6 -38 -137 0 c-153 0 -152 0 -116 70 25 49 61 69 123 70 40 0 53
-5 82 -32z"/>
<path d="M3512 742 c3 -243 3 -249 29 -297 47 -92 145 -133 264 -111 40 8 101
57 118 95 11 24 12 21 15 -31 l3 -58 84 0 85 0 0 325 0 325 -85 0 -85 0 0
-200 c0 -206 -4 -233 -44 -278 -46 -52 -147 -46 -190 11 -20 27 -21 38 -18
248 l3 219 -91 0 -91 0 3 -248z"/>
</g>
</svg>
